<svg width="23" height="23" viewBox="0 0 23 23" fill="none" xmlns="http://www.w3.org/2000/svg">
<path d="M23 11.5C23 17.8513 17.8513 23 11.5 23C5.14873 23 0 17.8513 0 11.5C0 5.14873 5.14873 0 11.5 0C17.8513 0 23 5.14873 23 11.5ZM2.72471 11.5C2.72471 16.3465 6.65354 20.2753 11.5 20.2753C16.3465 20.2753 20.2753 16.3465 20.2753 11.5C20.2753 6.65354 16.3465 2.72471 11.5 2.72471C6.65354 2.72471 2.72471 6.65354 2.72471 11.5Z" fill="#737373"/>
<path d="M16.3737 20.3801C16.7378 21.0436 17.5768 21.2926 18.1923 20.8522C19.8795 19.6449 21.2161 17.9979 22.049 16.0792C23.0646 13.7396 23.2736 11.1288 22.6432 8.65744C22.0127 6.18609 20.5786 3.99443 18.5665 2.42722C16.9163 1.14195 14.9541 0.336466 12.8947 0.0848674C12.1434 -0.00691389 11.5262 0.613562 11.5244 1.37039C11.5226 2.12721 12.1384 2.73127 12.8857 2.851C14.3359 3.08334 15.7121 3.67802 16.8824 4.58948C18.415 5.78319 19.5073 7.45252 19.9875 9.33489C20.4677 11.2173 20.3085 13.2058 19.5349 14.9878C18.9443 16.3485 18.0211 17.5298 16.8594 18.4284C16.2607 18.8914 16.0096 19.7167 16.3737 20.3801Z" fill="#E5E5E5"/>
</svg>
